<svg xmlns="http://www.w3.org/2000/svg" viewBox="0 0 20 20" width="20" height="20"><path fill="#fff" d="M 18 0 H 2 a 2 2 0 0 0 -2 2 v 16 a 2 2 0 0 0 2 2 h 16 a 2 2 0 0 0 2 -2 V 2 a 2 2 0 0 0 -2 -2 Z m -8 6 a 4 4 0 1 1 -4 4 a 4 4 0 0 1 4 -4 Z M 2.5 18 a 0.47 0.47 0 0 1 -0.5 -0.5 V 9 h 2.1 a 3.4 3.4 0 0 0 -0.1 1 a 6 6 0 1 0 12 0 a 3.4 3.4 0 0 0 -0.1 -1 H 18 v 8.5 a 0.47 0.47 0 0 1 -0.5 0.5 Z M 18 4.5 a 0.47 0.47 0 0 1 -0.5 0.5 h -2 a 0.47 0.47 0 0 1 -0.5 -0.5 v -2 a 0.47 0.47 0 0 1 0.5 -0.5 h 2 a 0.47 0.47 0 0 1 0.5 0.5 Z" /></svg>