<svg xmlns="http://www.w3.org/2000/svg" viewBox="0 0 16 16" width="16" height="16"><path fill="#fff" d="M 7.31 9.06 l -0.08 0.07 l -1.43 1.46 a 1.24 1.24 0 0 0 -0.23 0.32 a 1.17 1.17 0 0 0 0.19 1.33 a 1.15 1.15 0 0 0 0.95 0.37 a 1.18 1.18 0 0 0 0.79 -0.37 l 1.85 -1.86 l 1.72 -1.72 a 1.15 1.15 0 0 0 0.19 -0.27 a 1.11 1.11 0 0 0 0.12 -0.6 a 1 1 0 0 0 -0.21 -0.58 c -0.14 -0.17 -0.29 -0.32 -0.44 -0.48 L 7.34 3.34 a 1.1 1.1 0 0 0 -1 -0.28 a 1.12 1.12 0 0 0 -0.7 0.41 a 1.14 1.14 0 0 0 -0.27 0.67 a 1.19 1.19 0 0 0 0.39 1 l 1.5 1.5 l 0.08 0.08 H 2.1 a 1.21 1.21 0 0 0 -0.72 0.42 a 1.15 1.15 0 0 0 -0.24 1 a 1.12 1.12 0 0 0 0.39 0.62 a 1.14 1.14 0 0 0 0.78 0.29 h 5 Z M 12.51 8 v 3.93 a 0.59 0.59 0 0 1 -0.26 0.5 a 0.67 0.67 0 0 1 -0.41 0.11 h -1.27 a 1.18 1.18 0 0 0 -0.66 0.42 a 1.17 1.17 0 0 0 0.21 1.67 a 1.1 1.1 0 0 0 0.69 0.24 h 1 a 6 6 0 0 0 0.64 0 a 2.32 2.32 0 0 0 0.73 -0.24 a 3 3 0 0 0 0.62 -0.42 a 3.14 3.14 0 0 0 0.71 -0.86 a 2.88 2.88 0 0 0 0.35 -1.42 v -8.2 a 2.51 2.51 0 0 0 -0.26 -0.9 a 3.05 3.05 0 0 0 -0.88 -1.07 a 2.88 2.88 0 0 0 -1.78 -0.62 h -1.32 a 1.15 1.15 0 0 0 -0.65 0.37 a 1.12 1.12 0 0 0 -0.31 0.73 a 1.1 1.1 0 0 0 0.18 0.67 a 1.13 1.13 0 0 0 1 0.56 h 1.18 a 0.62 0.62 0 0 1 0.55 0.56 v 3.94 Z" /><path fill="#fff" d="M 7.31 9.06 h -5 a 1.14 1.14 0 0 1 -0.78 -0.29 a 1.12 1.12 0 0 1 -0.39 -0.62 a 1.15 1.15 0 0 1 0.24 -1 a 1.21 1.21 0 0 1 0.72 -0.45 h 5.24 l -0.08 -0.08 l -1.5 -1.5 a 1.19 1.19 0 0 1 -0.39 -1 a 1.14 1.14 0 0 1 0.27 -0.67 a 1.12 1.12 0 0 1 0.7 -0.41 a 1.1 1.1 0 0 1 1 0.28 l 3.39 3.38 c 0.15 0.15 0.3 0.31 0.44 0.48 a 1 1 0 0 1 0.21 0.58 a 1.11 1.11 0 0 1 -0.12 0.6 a 1.15 1.15 0 0 1 -0.19 0.27 l -1.72 1.75 l -1.84 1.86 a 1.18 1.18 0 0 1 -0.79 0.37 a 1.15 1.15 0 0 1 -0.95 -0.37 a 1.17 1.17 0 0 1 -0.19 -1.33 a 1.24 1.24 0 0 1 0.23 -0.32 l 1.43 -1.44 l 0.08 -0.07 Z" /><path fill="#fff" d="M 12.51 8 V 4.06 a 0.62 0.62 0 0 0 -0.51 -0.57 h -1.18 a 1.13 1.13 0 0 1 -1 -0.56 a 1.1 1.1 0 0 1 -0.18 -0.67 a 1.12 1.12 0 0 1 0.36 -0.75 a 1.15 1.15 0 0 1 0.65 -0.37 h 1.32 a 2.88 2.88 0 0 1 1.78 0.62 a 3.05 3.05 0 0 1 0.85 1.04 a 2.51 2.51 0 0 1 0.26 0.9 v 8.2 a 2.88 2.88 0 0 1 -0.35 1.42 a 3.14 3.14 0 0 1 -0.71 0.86 a 3 3 0 0 1 -0.62 0.42 a 2.32 2.32 0 0 1 -0.73 0.24 a 5.94 5.94 0 0 1 -0.64 0 h -1 a 1.1 1.1 0 0 1 -0.69 -0.24 a 1.17 1.17 0 0 1 -0.21 -1.6 a 1.18 1.18 0 0 1 0.66 -0.42 h 1.27 a 0.67 0.67 0 0 0 0.41 -0.11 a 0.59 0.59 0 0 0 0.26 -0.5 V 8.04 Z" /></svg>