<svg xmlns="http://www.w3.org/2000/svg" viewBox="0 0 111 24" width="111" height="24"><path fill="#fff" d="M 13.93 8.17 c 5 -1.67 5.34 -7.88 0.45 -7.88 a 5.06 5.06 0 0 0 -4.06 2.88 l -6.6 11.42 A 9.54 9.54 0 0 1 2.77 16 A 5.24 5.24 0 0 1 4 8.62 L 3 7.37 c -5.14 3.28 -3.63 12.75 5 12.75 c 7.26 0 10.66 -8.81 5.93 -11.95 Z M 7.87 18.23 a 7.06 7.06 0 0 1 -3.54 -0.85 a 12.72 12.72 0 0 0 1.23 -1.75 l 4.13 -7.15 l 0.66 0.07 c 5.76 1.21 3.47 9.68 -2.48 9.68 Z M 10.51 7 l 2 -3.4 c 1.79 -3.09 4.08 -1.27 2.85 1 C 14.41 6.45 13 7 10.51 7 Z" /><path fill="#fff" d="M 110.08 13.37 l -0.17 0.19 a 11.55 11.55 0 0 1 -4.49 3.44 c 0.4 -0.64 0.71 -1.32 1 -1.84 l 2.71 -4.65 c 2.29 -3.89 -1.42 -5.19 -3.92 -2.95 l 0.5 -0.85 h -2.46 l -3.84 6.66 l -0.17 0.19 a 5.29 5.29 0 0 1 -3.71 1.82 l 2.32 -4 c 1.49 -2.57 0.12 -5 -2.2 -5 c -1.89 0 -3.35 0.76 -4.77 3.21 l -1.2 2.1 l -1 1.72 l -0.13 0.15 c -1.77 2.05 -3.49 3.68 -4.58 3.68 c -0.54 0 -0.85 -0.38 -0.28 -1.34 l 3.54 -6.21 c 1.06 -1.87 0 -3.21 -1.32 -3.21 a 5 5 0 0 0 -3.42 1.87 l 3.92 -6.82 H 84 L 77.13 13.4 l -0.14 0.16 A 15.28 15.28 0 0 1 74 16.22 c 0.78 -2.34 0.62 -5.92 2.13 -9.07 l -1.85 -1 c -1 1.39 -3.23 4.6 -5.45 7.2 l -0.17 0.19 c -1.77 2.05 -3.49 3.68 -4.58 3.68 c -0.54 0 -0.85 -0.38 -0.28 -1.34 l 2.46 -4.3 a 2.51 2.51 0 0 0 -0.35 -3.33 l -1.34 -1.63 a 1 1 0 0 1 0.14 -1.42 l -1.27 -1.39 C 62 5.06 61.92 6.45 62.8 7.59 l 0.21 0.28 c -1.09 1.53 -2.55 3.61 -4.15 5.5 l -0.17 0.19 c -1.77 2.05 -4 3.68 -5.76 3.68 c -1.51 0 -2.41 -0.94 -1.28 -2.93 l 0.24 -0.42 c 1.58 0.66 4.56 0.35 6.4 -2.83 l 0.35 -0.61 c 1.32 -2.27 0 -4 -2 -4 a 5.19 5.19 0 0 0 -4.6 2.83 l -2.34 4.11 l -0.15 0.17 a 5.24 5.24 0 0 1 -3.71 1.82 l 2.31 -4 a 6 6 0 0 0 0.92 -2.81 a 2.1 2.1 0 0 0 -2.22 -2.2 a 2.86 2.86 0 0 0 -1.6 0.54 l 3.12 -5.41 h -2.5 L 39 13.41 l -0.13 0.15 c -1.77 2.05 -3.49 3.68 -4.58 3.68 c -0.54 0 -0.85 -0.38 -0.28 -1.34 l 2.45 -4.3 a 2.51 2.51 0 0 0 -0.35 -3.33 l -1.38 -1.65 a 1 1 0 0 1 0.14 -1.42 L 33.6 3.81 c -1.39 1.25 -1.51 2.64 -0.6 3.78 l 0.21 0.28 c -1.09 1.53 -2.55 3.61 -4.15 5.5 l -0.17 0.19 c -1.77 2.05 -3.49 3.68 -4.58 3.68 c -0.54 0 -0.85 -0.38 -0.28 -1.34 L 28 9 h -1.43 A 2.55 2.55 0 0 0 24 6.48 a 5.45 5.45 0 0 0 -4.2 2.83 l -3.44 5.95 c -1 1.82 -0.31 3.49 1.68 3.49 a 6 6 0 0 0 3.4 -1.6 a 1.9 1.9 0 0 0 2.13 1.6 c 2 0 4.36 -2.17 6.4 -4.53 C 31.13 12.85 32 11.62 34 9 l 0.32 0.4 a 1.21 1.21 0 0 1 0.14 1.39 l -2.6 4.51 c -1 1.82 -0.31 3.49 1.68 3.49 c 1.43 0 3 -1.07 4.51 -2.52 a 2.58 2.58 0 0 0 2.83 2.62 a 5.43 5.43 0 0 0 4.18 -2.29 a 4.16 4.16 0 0 0 0.54 0 a 7.2 7.2 0 0 0 3.26 -1 c -0.13 1.77 1.16 3.12 3.33 3.12 c 2.79 0 5.55 -2.17 7.58 -4.53 c 1.18 -1.37 2.1 -2.6 4.06 -5.26 l 0.33 0.4 a 1.21 1.21 0 0 1 0.14 1.39 l -2.6 4.51 c -1 1.82 -0.31 3.49 1.68 3.49 s 4.36 -2.17 6.4 -4.53 c 1.39 -1.6 2.62 -3.33 3.49 -4.48 c -1 2.55 -0.45 7.13 -2.78 7.13 a 1.37 1.37 0 0 1 -1.16 -0.9 l -1.53 0.8 a 2.67 2.67 0 0 0 2.68 2 a 6.65 6.65 0 0 0 0.68 0 h 0.07 A 8.61 8.61 0 0 0 75 17.06 l -0.84 1.47 h 2.48 L 80.38 12 c 3.78 -4.74 5.46 -4.13 4.39 -2.31 l -3.19 5.55 c -1 1.81 -0.3 3.49 1.68 3.49 c 1.43 0 3 -1.07 4.52 -2.53 c 0 3.13 4.34 3.74 7 0.38 h 0.54 A 6.77 6.77 0 0 0 98 16 l -4.47 7.75 H 96 l 7.34 -12.77 c 2.74 -3.73 4.46 -2.36 3.82 -1.25 l -3.71 6.42 a 1 1 0 0 1 -1.77 0 l -1.39 0.66 a 2.67 2.67 0 0 0 2.69 2 h 0.14 c 3.56 -0.07 5.9 -2.2 7.91 -4.53 a 1.54 1.54 0 0 0 -0.95 -0.91 Z m -55.9 -3.45 c 1.42 -2.43 3.92 -2 2.45 0.52 l -0.35 0.61 c -1.18 2 -2.76 2 -3.68 1.63 Z m -31.46 3.87 c -1.49 2.34 -3 3.45 -4 3.45 c -0.54 0 -0.85 -0.38 -0.28 -1.34 l 3.42 -6 c 1.32 -2.29 3.94 -1.7 2.74 0.52 Z m 18.48 3.35 a 0.92 0.92 0 0 1 -1 -0.94 a 2.76 2.76 0 0 1 0.43 -1.27 l 0.87 -1.51 A 3.61 3.61 0 0 0 43.06 16 a 2.3 2.3 0 0 1 -1.86 1.14 Z m 2.57 -2.38 a 2.65 2.65 0 0 1 -1 -2.22 c 0 -1.75 1.7 -4.6 3.09 -4.6 A 0.94 0.94 0 0 1 46.75 9 a 3 3 0 0 1 -0.47 1.46 Z m 50.42 -1.23 h -0.12 A 1.45 1.45 0 0 0 92.63 15 a 1.62 1.62 0 0 0 0.24 0.83 c -1.16 2 -4 1.6 -2.5 -0.94 l 1.87 -3.23 l 1.18 -2 c 1.72 -2.93 4.08 -1.77 2.6 0.78 Z" /></svg>