<svg xmlns="http://www.w3.org/2000/svg" viewBox="0 0 26.14 14.91" width="27" height="15"><path fill="#fff" d="M 26 13.47 l -0.09 -0.17 a 13.55 13.55 0 0 0 -2.6 -3 q -0.87 -0.83 -1.1 -1.12 A 1 1 0 0 1 22 8 a 10.27 10.27 0 0 1 1.22 -1.78 l 0.88 -1.16 q 2.35 -3.13 2 -4 L 26 0.94 a 0.8 0.8 0 0 0 -0.4 -0.22 a 2.14 2.14 0 0 0 -0.87 0 h -3.92 a 0.51 0.51 0 0 0 -0.27 0 h -0.3 a 0.6 0.6 0 0 0 -0.15 0.14 a 0.93 0.93 0 0 0 -0.14 0.24 a 22.22 22.22 0 0 1 -1.46 3.06 q -0.5 0.84 -0.93 1.46 a 7 7 0 0 1 -0.71 0.91 a 4.94 4.94 0 0 1 -0.52 0.47 q -0.23 0.18 -0.35 0.15 l -0.23 -0.05 a 0.9 0.9 0 0 1 -0.31 -0.33 a 1.49 1.49 0 0 1 -0.16 -0.53 V 1.6 a 3.14 3.14 0 0 0 0 -0.62 a 2.12 2.12 0 0 0 -0.14 -0.44 a 0.73 0.73 0 0 0 -0.28 -0.33 a 1.57 1.57 0 0 0 -0.46 -0.18 A 9 9 0 0 0 12.57 0 a 8.93 8.93 0 0 0 -3.25 0.33 a 1.83 1.83 0 0 0 -0.52 0.41 q -0.25 0.3 -0.07 0.33 a 1.67 1.67 0 0 1 1.16 0.59 l 0.08 0.16 a 2.6 2.6 0 0 1 0.19 0.63 a 6.32 6.32 0 0 1 0.12 1 a 10.59 10.59 0 0 1 0 1.7 q -0.07 0.71 -0.13 1.1 a 2.21 2.21 0 0 1 -0.18 0.64 a 2.69 2.69 0 0 1 -0.16 0.3 l -0.07 0.07 a 1 1 0 0 1 -0.37 0.07 a 0.86 0.86 0 0 1 -0.46 -0.19 a 3.27 3.27 0 0 1 -0.56 -0.52 a 7 7 0 0 1 -0.66 -0.93 q -0.37 -0.6 -0.76 -1.42 l -0.22 -0.39 q -0.2 -0.38 -0.56 -1.11 t -0.62 -1.43 A 0.9 0.9 0 0 0 5.2 0.9 h -0.07 a 0.93 0.93 0 0 0 -0.22 -0.16 A 1.44 1.44 0 0 0 4.6 0.65 L 0.87 0.68 A 1 1 0 0 0 0.1 0.94 L 0 1 a 0.44 0.44 0 0 0 0 0.22 a 1.08 1.08 0 0 0 0.08 0.37 Q 0.9 3.53 1.86 5.31 t 1.66 2.87 Q 4.23 9.27 5 10.24 t 1 1.24 l 0.37 0.41 l 0.34 0.33 a 8.06 8.06 0 0 0 1 0.78 a 16.34 16.34 0 0 0 1.4 0.9 a 7.6 7.6 0 0 0 1.79 0.72 a 6.19 6.19 0 0 0 2 0.22 h 1.57 a 1.08 1.08 0 0 0 0.72 -0.3 l 0.05 -0.07 a 0.9 0.9 0 0 0 0.1 -0.25 a 1.38 1.38 0 0 0 0 -0.37 a 4.48 4.48 0 0 1 0.09 -1.05 a 2.77 2.77 0 0 1 0.23 -0.71 a 1.74 1.74 0 0 1 0.29 -0.4 a 1.19 1.19 0 0 1 0.23 -0.2 h 0.11 a 0.86 0.86 0 0 1 0.77 0.21 a 4.52 4.52 0 0 1 0.83 0.79 q 0.39 0.47 0.93 1.05 a 6.41 6.41 0 0 0 1 0.87 l 0.27 0.16 a 3.31 3.31 0 0 0 0.71 0.3 a 1.53 1.53 0 0 0 0.76 0.07 l 3.48 -0.05 a 1.58 1.58 0 0 0 0.8 -0.17 a 0.68 0.68 0 0 0 0.34 -0.37 a 1.06 1.06 0 0 0 0 -0.46 a 1.71 1.71 0 0 0 -0.1 -0.36 Z" /></svg>